<?xml version="1.0" encoding="utf-8"?>
<!-- Generator: Adobe Illustrator 25.4.1, SVG Export Plug-In . SVG Version: 6.00 Build 0)  -->
<svg version="1.1" id="Layer_1" xmlns="http://www.w3.org/2000/svg" xmlns:xlink="http://www.w3.org/1999/xlink" x="0px" y="0px"
	 viewBox="0 0 100 100" style="enable-background:new 0 0 100 100;" xml:space="preserve">
	 <?xml-stylesheet href="./icons.css" type="text/css"?>
<style type="text/css">
	.st0{fill:none;stroke:#a8dbed;stroke-miterlimit:10;}
	.st1{stroke:#a8dbed;stroke-miterlimit:10;}
</style>
<path class="st0" d="M10.8,30c1.1-4.2,3.6-6.3,7.8-5.9c4.5-3.7,6.9-3.4,9.2-2.6c5.2-2.2,7.9-1.2,10.4,0c5.2-0.6,9-0.2,9.6,2.7
	c4.7,1,6.1,2.3,5.4,4c3.8,1.8,4.7,4,3.5,6.6c2.6,2.6,2.8,5.3,0,8.1c0,3.8-2.1,5.6-6.1,5.8c-0.8,3.9-3.3,4.5-7,3
	c-3.3,5.2-7.2,3.2-11,1.8c-3.6,3-6.9,1.3-10.1-1.6c-3.5,3-6.2,0.5-8.6-4.7c-4.9,1.4-5.3-1.6-4.5-5.8C6.4,35.9,7.7,32.5,10.8,30z"/>
<ellipse class="st0" cx="57.5" cy="52.6" rx="20.9" ry="21.7"/>
<line class="st0" x1="52" y1="75.2" x2="46.9" y2="86.2"/>
<line class="st0" x1="58.5" y1="76.3" x2="58.8" y2="90.9"/>
<line class="st0" x1="65.8" y1="74.3" x2="72" y2="85.5"/>
<line class="st0" x1="72.4" y1="69.8" x2="83.5" y2="79"/>
<line class="st0" x1="79.4" y1="54.4" x2="92.6" y2="54.4"/>
<line class="st0" x1="77.1" y1="62.9" x2="88.2" y2="66.5"/>
<line class="st0" x1="88.6" y1="42.1" x2="78.4" y2="45.9"/>
<line class="st0" x1="86" y1="29.8" x2="74.6" y2="38.5"/>
<line class="st0" x1="76.5" y1="24.5" x2="69.3" y2="33.3"/>
<line class="st0" x1="57.9" y1="19.2" x2="58.6" y2="29.8"/>
<line class="st0" x1="67.9" y1="17.6" x2="63.9" y2="30.8"/>
<line class="st0" x1="45.1" y1="72" x2="37.9" y2="79.9"/>
<line class="st0" x1="40.5" y1="67.4" x2="32" y2="72.8"/>
<line class="st0" x1="36.6" y1="60" x2="28" y2="63.6"/>
</svg>
