<?xml version="1.0" encoding="utf-8"?>
<!-- Generator: Adobe Illustrator 25.4.1, SVG Export Plug-In . SVG Version: 6.00 Build 0)  -->
<svg version="1.1" id="Layer_1" xmlns="http://www.w3.org/2000/svg" xmlns:xlink="http://www.w3.org/1999/xlink" x="0px" y="0px"
	 viewBox="0 0 100 100" style="enable-background:new 0 0 100 100;" xml:space="preserve">
<style type="text/css">
	.st0{fill:none;stroke:#a8dbed;stroke-miterlimit:10;}
	.st1{stroke:#a8dbed;stroke-miterlimit:10;}
</style>
<path class="st0" d="M14.4,22.7c1.6-6.3,5.4-9.4,11.8-8.8c6.7-5.5,10.5-5,13.8-3.9c7.9-3.3,11.9-1.8,15.7,0
	c7.8-0.9,13.5-0.2,14.5,4.1c7.1,1.4,9.2,3.5,8.2,5.9c5.7,2.7,7.1,6,5.3,9.9c4,3.9,4.2,7.9,0,12.1c0.1,5.7-3.1,8.4-9.2,8.7
	c-1.2,5.8-5,6.7-10.6,4.4c-5,7.7-10.8,4.8-16.6,2.7c-5.4,4.4-10.4,1.9-15.2-2.4c-5.3,4.5-9.4,0.7-13-7c-7.4,2.1-8-2.4-6.8-8.7
	C7.9,31.6,9.8,26.5,14.4,22.7z"/>
<circle class="st1" cx="18.3" cy="61.9" r="1.3"/>
<circle class="st1" cx="25.8" cy="66.5" r="1.3"/>
<circle class="st1" cx="21" cy="68.5" r="1.3"/>
<circle class="st1" cx="33" cy="62.6" r="1.3"/>
<circle class="st1" cx="32.3" cy="69.6" r="1.3"/>
<circle class="st1" cx="39.8" cy="74.2" r="1.3"/>
<circle class="st1" cx="32.4" cy="75.8" r="1.3"/>
<circle class="st1" cx="47" cy="70.3" r="1.3"/>
<circle class="st1" cx="27.6" cy="79.3" r="1.3"/>
<circle class="st1" cx="35" cy="83.9" r="1.3"/>
<circle class="st1" cx="30.2" cy="87.7" r="1.3"/>
<circle class="st1" cx="39.6" cy="80" r="1.3"/>
<circle class="st1" cx="25" cy="74.5" r="1.3"/>
<circle class="st1" cx="19.6" cy="77.9" r="1.3"/>
<circle class="st1" cx="16.7" cy="71.6" r="1.3"/>
<circle class="st1" cx="16.7" cy="83.3" r="1.3"/>
<circle class="st1" cx="25.8" cy="92.9" r="1.3"/>
<circle class="st1" cx="32.2" cy="92.2" r="1.3"/>
<circle class="st1" cx="39.6" cy="96.9" r="1.3"/>
<circle class="st1" cx="44.7" cy="90.9" r="1.3"/>
<circle class="st1" cx="23.2" cy="86.4" r="1.3"/>
<circle class="st1" cx="18.3" cy="94.3" r="1.3"/>
<circle class="st1" cx="43.4" cy="83.9" r="1.3"/>
<circle class="st1" cx="38.6" cy="87.7" r="1.3"/>
<circle class="st1" cx="51.3" cy="86.4" r="1.3"/>
<circle class="st1" cx="48" cy="96.9" r="1.3"/>
<circle class="st1" cx="55.3" cy="92.9" r="1.3"/>
<circle class="st1" cx="53.9" cy="64.5" r="1.3"/>
<circle class="st1" cx="62.1" cy="63.1" r="1.3"/>
<circle class="st1" cx="51.9" cy="69.9" r="1.3"/>
<circle class="st1" cx="53.2" cy="81.9" r="1.3"/>
<circle class="st1" cx="54.2" cy="74.9" r="1.3"/>
<path class="st1" d="M47.2,76.5c0.2-0.7,1-1,1.7-0.8s1,1,0.8,1.7c-0.2,0.7-1,1-1.7,0.8C47.3,77.9,47,77.1,47.2,76.5"/>
<circle class="st1" cx="60.9" cy="79.8" r="1.3"/>
<circle class="st1" cx="69.4" cy="58.6" r="1.3"/>
<circle class="st1" cx="77.7" cy="58.6" r="1.3"/>
<circle class="st1" cx="66.5" cy="63.5" r="1.3"/>
<circle class="st1" cx="65.7" cy="75.6" r="1.3"/>
<circle class="st1" cx="67.9" cy="68.8" r="1.3"/>
<path class="st1" d="M60.7,69.2c0.3-0.6,1.1-0.9,1.8-0.5s0.9,1.1,0.5,1.8s-1.1,0.9-1.8,0.5C60.6,70.6,60.4,69.8,60.7,69.2"/>
<circle class="st1" cx="72.4" cy="63.9" r="1.3"/>
<circle class="st1" cx="61.4" cy="84.6" r="1.3"/>
<circle class="st1" cx="68.6" cy="80.6" r="1.3"/>
<circle class="st1" cx="57.9" cy="88.3" r="1.3"/>
<circle class="st1" cx="69.9" cy="86.4" r="1.3"/>
<circle class="st1" cx="63.4" cy="90.9" r="1.3"/>
<path class="st1" d="M58.9,98c0-0.7,0.6-1.3,1.3-1.3s1.3,0.6,1.3,1.3s-0.6,1.3-1.3,1.3S58.9,98.7,58.9,98"/>
<circle class="st1" cx="68.1" cy="96.7" r="1.3"/>
<path class="st1" d="M76.3,64.8c0.7-0.3,1.4,0,1.7,0.7c0.3,0.7,0,1.4-0.7,1.7c-0.7,0.3-1.4,0-1.7-0.7S75.6,65.1,76.3,64.8"/>
<circle class="st1" cx="73.7" cy="71.2" r="1.3"/>
<circle class="st1" cx="73.7" cy="77.2" r="1.3"/>
<circle class="st1" cx="37.5" cy="66.5" r="1.3"/>
<circle class="st1" cx="42.4" cy="63" r="1.3"/>
<circle class="st1" cx="48" cy="63.4" r="1.3"/>
<path class="st1" d="M40.8,68.5c0.2-0.7,1-1,1.7-0.8c0.7,0.2,1,1,0.8,1.7c-0.2,0.7-1,1-1.7,0.8C41,70,40.6,69.2,40.8,68.5"/>
<path class="st1" d="M74.2,82.3c0.7,0,1.3,0.6,1.3,1.3s-0.6,1.3-1.3,1.3s-1.3-0.6-1.3-1.3S73.5,82.3,74.2,82.3"/>
<circle class="st1" cx="75.5" cy="89.3" r="1.3"/>
<circle class="st1" cx="69.9" cy="92.2" r="1.3"/>
</svg>
