<?xml version="1.0" encoding="utf-8"?>
<!-- Generator: Adobe Illustrator 25.4.1, SVG Export Plug-In . SVG Version: 6.00 Build 0)  -->
<svg version="1.1" id="Layer_1" xmlns="http://www.w3.org/2000/svg" xmlns:xlink="http://www.w3.org/1999/xlink" x="0px" y="0px"
	 viewBox="0 0 100 100" style="enable-background:new 0 0 100 100;" xml:space="preserve">
<style type="text/css">
	.st0{fill:none;stroke:#a8dbed;stroke-miterlimit:10;}
	.st1{stroke:#a8dbed;stroke-miterlimit:10;}
</style>
<path class="st0" d="M14.4,22.7c1.6-6.3,5.4-9.4,11.8-8.8c6.7-5.5,10.5-5,13.8-3.9c7.9-3.3,11.9-1.8,15.7,0
	c7.8-0.9,13.5-0.2,14.5,4.1c7.1,1.4,9.2,3.5,8.2,5.9c5.7,2.7,7.1,6,5.3,9.9c4,3.9,4.2,7.9,0,12.1c0.1,5.7-3.1,8.4-9.2,8.7
	c-1.2,5.8-5,6.7-10.6,4.4c-5,7.7-10.8,4.8-16.6,2.7c-5.4,4.4-10.4,1.9-15.2-2.4c-5.3,4.5-9.4,0.7-13-7c-7.4,2.1-8-2.4-6.8-8.7
	C7.9,31.6,9.8,26.5,14.4,22.7z"/>
<line class="st0" x1="17.1" y1="54.1" x2="17.1" y2="71.8"/>
<line class="st0" x1="25.4" y1="61.8" x2="25.4" y2="73.1"/>
<line class="st0" x1="33.6" y1="59.7" x2="33.6" y2="71.8"/>
<line class="st0" x1="25.4" y1="74.7" x2="25.4" y2="93.4"/>
<line class="st0" x1="33.6" y1="73" x2="33.6" y2="84"/>
<line class="st0" x1="33.6" y1="85" x2="33.6" y2="98.6"/>
<line class="st0" x1="17.1" y1="73" x2="17.1" y2="85.1"/>
<line class="st0" x1="17.1" y1="85.7" x2="17.1" y2="100"/>
<line class="st0" x1="25.4" y1="94.7" x2="25.4" y2="100"/>
<line class="st0" x1="41" y1="61.8" x2="41" y2="73.1"/>
<line class="st0" x1="41" y1="74.7" x2="41" y2="93.4"/>
<line class="st0" x1="41" y1="94.7" x2="41" y2="100"/>
<line class="st0" x1="77.8" y1="51.8" x2="77.8" y2="70.4"/>
<line class="st0" x1="77.8" y1="71.6" x2="77.8" y2="84.3"/>
<line class="st0" x1="77.8" y1="85" x2="77.8" y2="100"/>
<line class="st0" x1="50" y1="59.9" x2="50" y2="71.8"/>
<line class="st0" x1="50" y1="73.5" x2="50" y2="93.1"/>
<line class="st0" x1="50" y1="94.5" x2="50" y2="100"/>
<line class="st0" x1="58" y1="61.1" x2="58" y2="73.2"/>
<line class="st0" x1="58" y1="74.4" x2="58" y2="85.4"/>
<line class="st0" x1="58" y1="86.3" x2="58" y2="99.9"/>
<line class="st0" x1="69" y1="57.5" x2="69" y2="67.9"/>
<line class="st0" x1="69" y1="68.9" x2="69" y2="82.3"/>
<line class="st0" x1="69" y1="83.4" x2="69" y2="99.9"/>
</svg>
