<?xml version="1.0" encoding="utf-8"?>
<!-- Generator: Adobe Illustrator 25.4.1, SVG Export Plug-In . SVG Version: 6.00 Build 0)  -->
<svg version="1.1" id="Layer_1" xmlns="http://www.w3.org/2000/svg" xmlns:xlink="http://www.w3.org/1999/xlink" x="0px" y="0px"
	 viewBox="0 0 100 100" style="enable-background:new 0 0 100 100;" xml:space="preserve">
<style type="text/css">
	.st0{fill:none;stroke:#a8dbed;stroke-miterlimit:10;}
	.st1{stroke:#a8dbed;stroke-miterlimit:10;}
</style>
<path class="st0" d="M14.4,22.7c1.6-6.3,5.4-9.4,11.8-8.8c6.7-5.5,10.5-5,13.8-3.9c7.9-3.3,11.9-1.8,15.7,0
	c7.8-0.9,13.5-0.2,14.5,4.1c7.1,1.4,9.2,3.5,8.2,5.9c5.7,2.7,7.1,6,5.3,9.9c4,3.9,4.2,7.9,0,12.1c0.1,5.7-3.1,8.4-9.2,8.7
	c-1.2,5.8-5,6.7-10.6,4.4c-5,7.7-10.8,4.8-16.6,2.7c-5.4,4.4-10.4,1.9-15.2-2.4c-5.3,4.5-9.4,0.7-13-7c-7.4,2.1-8-2.4-6.8-8.7
	C7.9,31.6,9.8,26.5,14.4,22.7z"/>
<circle class="st1" cx="19.4" cy="58.8" r="0.3"/>
<circle class="st1" cx="24.2" cy="63.1" r="0.5"/>
<circle class="st1" cx="16" cy="66.9" r="0.2"/>
<circle class="st1" cx="19.9" cy="69.5" r="0.2"/>
<circle class="st1" cx="16.4" cy="77.1" r="0.2"/>
<circle class="st1" cx="23.5" cy="74.1" r="0.2"/>
<circle class="st1" cx="30.3" cy="65.4" r="0.3"/>
<circle class="st1" cx="31.9" cy="71.8" r="0.3"/>
<circle class="st1" cx="35.5" cy="64.9" r="0.2"/>
<circle class="st1" cx="26.8" cy="69.4" r="0.1"/>
<circle class="st1" cx="26.9" cy="77.3" r="0.1"/>
<circle class="st1" cx="21.3" cy="80.4" r="0.2"/>
<circle class="st1" cx="16.8" cy="83.4" r="0.2"/>
<circle class="st1" cx="32" cy="80.8" r="0.2"/>
<circle class="st1" cx="29.6" cy="85.3" r="0.2"/>
<circle class="st1" cx="26" cy="81.7" r="0.1"/>
<circle class="st1" cx="35" cy="75.2" r="0.3"/>
<circle class="st1" cx="34.7" cy="83.9" r="0.4"/>
<circle class="st1" cx="45.2" cy="62.8" r="0.3"/>
<circle class="st1" cx="48.9" cy="68.1" r="0.5"/>
<circle class="st1" cx="40" cy="70" r="0.2"/>
<circle class="st1" cx="43.3" cy="73.4" r="0.2"/>
<circle class="st1" cx="38.1" cy="80" r="0.2"/>
<circle class="st1" cx="45.7" cy="78.6" r="0.2"/>
<circle class="st1" cx="54.4" cy="71.7" r="0.3"/>
<circle class="st1" cx="54.4" cy="78.3" r="0.3"/>
<circle class="st1" cx="59.5" cy="72.4" r="0.2"/>
<circle class="st1" cx="50" cy="74.8" r="0.1"/>
<circle class="st1" cx="48.3" cy="82.5" r="0.1"/>
<circle class="st1" cx="42.2" cy="84.3" r="0.2"/>
<circle class="st1" cx="37.1" cy="86.1" r="0.2"/>
<circle class="st1" cx="52.5" cy="87" r="0.2"/>
<circle class="st1" cx="49.1" cy="90.9" r="0.2"/>
<circle class="st1" cx="46.5" cy="86.6" r="0.1"/>
<circle class="st1" cx="56.7" cy="82.3" r="0.3"/>
<circle class="st1" cx="54.4" cy="90.7" r="0.4"/>
<circle class="st1" cx="67.8" cy="61.5" r="0.3"/>
<circle class="st1" cx="71.5" cy="66.7" r="0.5"/>
<circle class="st1" cx="62.7" cy="68.6" r="0.2"/>
<circle class="st1" cx="65.9" cy="72" r="0.2"/>
<circle class="st1" cx="60.8" cy="78.6" r="0.2"/>
<circle class="st1" cx="68.4" cy="77.2" r="0.2"/>
<circle class="st1" cx="77" cy="70.3" r="0.3"/>
<circle class="st1" cx="77" cy="76.9" r="0.3"/>
<circle class="st1" cx="82.2" cy="71" r="0.2"/>
<circle class="st1" cx="70.1" cy="72.8" r="0.1"/>
<circle class="st1" cx="70.9" cy="81.2" r="0.1"/>
<circle class="st1" cx="64.8" cy="82.9" r="0.2"/>
<circle class="st1" cx="59.7" cy="84.8" r="0.2"/>
<circle class="st1" cx="75.2" cy="85.7" r="0.2"/>
<circle class="st1" cx="69.5" cy="90.8" r="0.2"/>
<circle class="st1" cx="69.1" cy="85.2" r="0.1"/>
<circle class="st1" cx="79.3" cy="80.9" r="0.3"/>
<circle class="st1" cx="77" cy="89.3" r="0.4"/>
<circle class="st1" cx="25.7" cy="75.7" r="0.3"/>
<circle class="st1" cx="29.4" cy="81" r="0.5"/>
<circle class="st1" cx="20.6" cy="82.9" r="0.2"/>
<circle class="st1" cx="23.8" cy="86.3" r="0.2"/>
<circle class="st1" cx="18.7" cy="92.9" r="0.2"/>
<circle class="st1" cx="26.3" cy="91.5" r="0.2"/>
<circle class="st1" cx="34.9" cy="84.6" r="0.3"/>
<circle class="st1" cx="34.9" cy="91.2" r="0.3"/>
<circle class="st1" cx="40" cy="85.3" r="0.2"/>
<circle class="st1" cx="30.5" cy="87.7" r="0.1"/>
<circle class="st1" cx="28.8" cy="95.4" r="0.1"/>
<circle class="st1" cx="22.7" cy="97.2" r="0.2"/>
<circle class="st1" cx="17.6" cy="99.1" r="0.2"/>
<circle class="st1" cx="27" cy="99.5" r="0.1"/>
<circle class="st1" cx="37.2" cy="95.2" r="0.3"/>
<circle class="st1" cx="45.1" cy="93.3" r="0.2"/>
<circle class="st1" cx="40.6" cy="96.3" r="0.2"/>
<circle class="st1" cx="55.8" cy="93.7" r="0.2"/>
<circle class="st1" cx="53.4" cy="98.2" r="0.2"/>
<circle class="st1" cx="49.8" cy="94.6" r="0.1"/>
<circle class="st1" cx="58.5" cy="96.8" r="0.4"/>
<circle class="st1" cx="61.9" cy="92.9" r="0.2"/>
<circle class="st1" cx="60.9" cy="99.1" r="0.2"/>
<circle class="st1" cx="53.2" cy="93.9" r="0.5"/>
<circle class="st1" cx="44.4" cy="95.8" r="0.2"/>
<circle class="st1" cx="47.6" cy="99.2" r="0.2"/>
<path class="st1" d="M54.4,100.6"/>
<path class="st1" d="M54.2,100.6"/>
<circle class="st1" cx="60.4" cy="87.8" r="0.2"/>
<circle class="st1" cx="68.3" cy="91.7" r="0.1"/>
<circle class="st1" cx="64.5" cy="92.2" r="0.2"/>
<circle class="st1" cx="59.4" cy="94" r="0.2"/>
<circle class="st1" cx="74.8" cy="94.9" r="0.2"/>
<circle class="st1" cx="65" cy="95.9" r="0.2"/>
<circle class="st1" cx="72.9" cy="91.7" r="0.1"/>
<circle class="st1" cx="79" cy="90.1" r="0.3"/>
<circle class="st1" cx="70.2" cy="95.8" r="0.4"/>
<circle class="st1" cx="55.4" cy="62.5" r="0.2"/>
<circle class="st1" cx="64.1" cy="62.1" r="0.3"/>
<circle class="st1" cx="58" cy="66.4" r="0.1"/>
<circle class="st1" cx="51.9" cy="68.2" r="0.2"/>
<circle class="st1" cx="66.4" cy="66.1" r="0.3"/>
<circle class="st1" cx="72.6" cy="59.2" r="0.2"/>
<circle class="st1" cx="81.2" cy="58.8" r="0.3"/>
<circle class="st1" cx="75.1" cy="63.1" r="0.1"/>
<circle class="st1" cx="69" cy="64.9" r="0.2"/>
<circle class="st1" cx="83.5" cy="62.8" r="0.3"/>
<circle class="st1" cx="71.3" cy="63.8" r="0.2"/>
<circle class="st1" cx="79.9" cy="63.5" r="0.3"/>
<circle class="st1" cx="67.7" cy="69.5" r="0.2"/>
<circle class="st1" cx="82.2" cy="67.5" r="0.3"/>
<circle class="st1" cx="72.3" cy="71.5" r="0.2"/>
<circle class="st1" cx="74.9" cy="68.6" r="0.3"/>
<circle class="st1" cx="69" cy="98.1" r="0.3"/>
<circle class="st1" cx="75.3" cy="98.4" r="0.2"/>
<circle class="st1" cx="33.3" cy="98.5" r="0.3"/>
<circle class="st1" cx="39.6" cy="98.8" r="0.2"/>
</svg>
