<?xml version="1.0" encoding="iso-8859-1"?>
<!-- Generator: Adobe Illustrator 25.4.1, SVG Export Plug-In . SVG Version: 6.00 Build 0)  -->
<svg version="1.1" id="Layer_1" xmlns="http://www.w3.org/2000/svg" xmlns:xlink="http://www.w3.org/1999/xlink" x="0px" y="0px"
	 viewBox="0 0 100 100" style="enable-background:new 0 0 100 100;" xml:space="preserve">
<style type="text/css">
	.st0{fill:none;stroke:#a8dbed;stroke-miterlimit:10;}
</style>
<ellipse class="st0" cx="50.123" cy="50.016" rx="20.885" ry="21.737"/>
<line class="st0"  x1="44.614" y1="72.644" x2="39.512" y2="83.622"/>
<line class="st0" x1="51.093" y1="73.706" x2="51.339" y2="86.168"/>
<line class="st0" x1="58.421" y1="71.753" x2="64.597" y2="82.936"/>
<line class="st0" x1="65.008" y1="67.272" x2="72.78" y2="73.706"/>
<line class="st0" x1="71.954" y1="51.901" x2="81.234" y2="51.901"/>
<line class="st0" x1="69.734" y1="60.356" x2="81.94" y2="64.343"/>
<line class="st0" x1="83.564" y1="38.731" x2="71.008" y2="43.376"/>
<line class="st0" x1="75.837" y1="30.775" x2="67.198" y2="35.998"/>
<line class="st0" x1="71.518" y1="20.22" x2="61.852" y2="30.775"/>
<line class="st0" x1="44.294" y1="14.647" x2="47.232" y2="27.131"/>
<line class="st0"x1="59.263" y1="19.175" x2="56.471" y2="28.279"/>
<path class="st0" d="M51.339,15.907"/>
<path class="st0" d="M19.728,51.038"/>
<path class="st0" d="M51.339,86.168"/>
<path class="st0" d="M82.951,51.038"/>
<line class="st0" x1="37.662" y1="69.482" x2="30.511" y2="77.344"/>
<line class="st0" x1="32.1" y1="63.953" x2="23.927" y2="69.482"/>
<line class="st0" x1="28.614" y1="56.347" x2="20.682" y2="59.634"/>
<line class="st0" x1="27.659" y1="49.097" x2="16.436" y2="49.097"/>
<line class="st0" x1="29.237" y1="42.127" x2="20.389" y2="38.354"/>
<line class="st0" x1="32.1" y1="37.019" x2="22.565" y2="28.279"/>
<line class="st0" x1="39.512" y1="29.622" x2="33.787" y2="23.072"/>
</svg>
